<svg width="128" height="128" viewBox="0 0 128 128" fill="none" xmlns="http://www.w3.org/2000/svg">
<rect width="128" height="128" fill="#F5F5F5"/>
<g clip-path="url(#clip0_0_1)">
<rect width="128" height="128" rx="20" fill="#FFC100"/>
<g filter="url(#filter0_dd_0_1)">
<path d="M63.2699 35V104.818H17.8608V94.2159H50.6222V75.2614H20.2131V64.6591H50.6222V45.6023H17.5881V35H63.2699Z" fill="black"/>
</g>
<g filter="url(#filter1_ddd_0_1)">
<path d="M61.0964 86.0965L62.5258 16.293L88.7021 16.829C94.0646 16.9388 98.5446 17.9626 102.142 19.9003C105.762 21.8384 108.47 24.5081 110.264 27.9092C112.081 31.288 112.945 35.2042 112.853 39.6578C112.762 44.1342 111.728 48.0002 109.752 51.2558C107.799 54.4893 104.963 56.9658 101.246 58.6855C97.5282 60.3825 92.9883 61.1761 87.6257 61.0663L68.9819 60.6845L69.1969 50.1867L86.1365 50.5336C89.2722 50.5978 91.8487 50.2186 93.866 49.3961C95.8837 48.5509 97.387 47.2973 98.3757 45.6354C99.3877 43.9512 99.9191 41.8707 99.9698 39.394C100.02 36.9172 99.5752 34.794 98.634 33.0244C97.6932 31.232 96.2323 29.8609 94.2514 28.9111C92.2709 27.9385 89.7014 27.4199 86.543 27.3552L74.9545 27.1179L73.7414 86.3555L61.0964 86.0965ZM97.8047 55.2053L114.437 87.1888L100.327 86.8999L84.0008 54.9226L97.8047 55.2053Z" fill="black"/>
</g>
<path d="M72.6729 124V116H77.876V117.215H74.1221V119.387H77.6064V120.602H74.1221V122.785H77.9072V124H72.6729ZM79.292 124V118H80.7061V124H79.292ZM80.0029 117.148C79.779 117.148 79.5863 117.074 79.4248 116.926C79.2633 116.775 79.1826 116.594 79.1826 116.383C79.1826 116.169 79.2633 115.988 79.4248 115.84C79.5863 115.689 79.779 115.613 80.0029 115.613C80.2295 115.613 80.4222 115.689 80.5811 115.84C80.7425 115.988 80.8232 116.169 80.8232 116.383C80.8232 116.594 80.7425 116.775 80.5811 116.926C80.4222 117.074 80.2295 117.148 80.0029 117.148ZM82.1602 124V118H83.5313V119H83.5938C83.7031 118.654 83.8906 118.387 84.1563 118.199C84.4245 118.009 84.7305 117.914 85.0742 117.914C85.1523 117.914 85.2396 117.918 85.3359 117.926C85.4349 117.931 85.5169 117.94 85.582 117.953V119.254C85.5221 119.233 85.4271 119.215 85.2969 119.199C85.1693 119.181 85.0456 119.172 84.9258 119.172C84.668 119.172 84.4362 119.228 84.2305 119.34C84.0273 119.449 83.8672 119.602 83.75 119.797C83.6328 119.992 83.5742 120.217 83.5742 120.473V124H82.1602ZM89.8828 118V119.094H86.3359V118H89.8828ZM87.2227 124V117.434C87.2227 117.03 87.306 116.694 87.4727 116.426C87.6419 116.158 87.8685 115.957 88.1523 115.824C88.4362 115.691 88.7513 115.625 89.0977 115.625C89.3424 115.625 89.5599 115.645 89.75 115.684C89.9401 115.723 90.0807 115.758 90.1719 115.789L89.8906 116.883C89.8307 116.865 89.7552 116.846 89.6641 116.828C89.5729 116.807 89.4714 116.797 89.3594 116.797C89.0964 116.797 88.9102 116.861 88.8008 116.988C88.694 117.113 88.6406 117.293 88.6406 117.527V124H87.2227ZM92.5127 124.121C92.1325 124.121 91.79 124.053 91.4854 123.918C91.1833 123.78 90.9437 123.577 90.7666 123.309C90.5921 123.04 90.5049 122.71 90.5049 122.316C90.5049 121.978 90.5674 121.698 90.6924 121.477C90.8174 121.255 90.988 121.078 91.2041 120.945C91.4202 120.812 91.6637 120.712 91.9346 120.645C92.208 120.574 92.4906 120.523 92.7822 120.492C93.1338 120.456 93.4189 120.423 93.6377 120.395C93.8564 120.363 94.0153 120.316 94.1143 120.254C94.2158 120.189 94.2666 120.089 94.2666 119.953V119.93C94.2666 119.635 94.1794 119.408 94.0049 119.246C93.8304 119.085 93.5791 119.004 93.251 119.004C92.9046 119.004 92.6299 119.079 92.4268 119.23C92.2262 119.382 92.0908 119.56 92.0205 119.766L90.7002 119.578C90.8044 119.214 90.9762 118.909 91.2158 118.664C91.4554 118.417 91.7484 118.232 92.0947 118.109C92.4411 117.984 92.8239 117.922 93.2432 117.922C93.5322 117.922 93.82 117.956 94.1064 118.023C94.3929 118.091 94.6546 118.203 94.8916 118.359C95.1286 118.513 95.3187 118.723 95.4619 118.988C95.6077 119.254 95.6807 119.586 95.6807 119.984V124H94.3213V123.176H94.2744C94.1885 123.342 94.0674 123.499 93.9111 123.645C93.7575 123.788 93.5635 123.904 93.3291 123.992C93.0973 124.078 92.8252 124.121 92.5127 124.121ZM92.8799 123.082C93.1637 123.082 93.4098 123.026 93.6182 122.914C93.8265 122.799 93.9867 122.648 94.0986 122.461C94.2132 122.273 94.2705 122.069 94.2705 121.848V121.141C94.2262 121.177 94.1507 121.211 94.0439 121.242C93.9398 121.273 93.8226 121.301 93.6924 121.324C93.5622 121.348 93.4333 121.368 93.3057 121.387C93.1781 121.405 93.0674 121.421 92.9736 121.434C92.7627 121.462 92.5739 121.509 92.4072 121.574C92.2406 121.639 92.109 121.73 92.0127 121.848C91.9163 121.962 91.8682 122.111 91.8682 122.293C91.8682 122.553 91.9632 122.75 92.1533 122.883C92.3434 123.016 92.5856 123.082 92.8799 123.082ZM98.5166 120.484V124H97.1025V118H98.4541V119.02H98.5244C98.6624 118.684 98.8825 118.417 99.1846 118.219C99.4893 118.021 99.8656 117.922 100.313 117.922C100.728 117.922 101.088 118.01 101.396 118.187C101.705 118.365 101.945 118.621 102.114 118.957C102.286 119.293 102.371 119.701 102.368 120.18V124H100.954V120.398C100.954 119.997 100.85 119.684 100.642 119.457C100.436 119.23 100.151 119.117 99.7861 119.117C99.5387 119.117 99.3187 119.172 99.126 119.281C98.9359 119.388 98.7861 119.543 98.6768 119.746C98.57 119.949 98.5166 120.195 98.5166 120.484ZM108.548 119.586L107.259 119.727C107.222 119.596 107.159 119.474 107.067 119.359C106.979 119.245 106.859 119.152 106.708 119.082C106.557 119.012 106.372 118.977 106.153 118.977C105.859 118.977 105.612 119.04 105.411 119.168C105.213 119.296 105.116 119.461 105.118 119.664C105.116 119.839 105.179 119.98 105.31 120.09C105.442 120.199 105.661 120.289 105.966 120.359L106.989 120.578C107.557 120.701 107.979 120.895 108.255 121.16C108.534 121.426 108.674 121.773 108.677 122.203C108.674 122.581 108.563 122.914 108.345 123.203C108.129 123.49 107.828 123.714 107.442 123.875C107.057 124.036 106.614 124.117 106.114 124.117C105.38 124.117 104.789 123.964 104.341 123.656C103.893 123.346 103.626 122.915 103.54 122.363L104.919 122.23C104.981 122.501 105.114 122.706 105.317 122.844C105.521 122.982 105.785 123.051 106.11 123.051C106.446 123.051 106.716 122.982 106.919 122.844C107.125 122.706 107.228 122.535 107.228 122.332C107.228 122.16 107.161 122.018 107.028 121.906C106.898 121.794 106.695 121.708 106.419 121.648L105.396 121.434C104.82 121.314 104.394 121.112 104.118 120.828C103.842 120.542 103.705 120.18 103.708 119.742C103.705 119.372 103.806 119.052 104.009 118.781C104.215 118.508 104.5 118.297 104.864 118.148C105.231 117.997 105.655 117.922 106.134 117.922C106.837 117.922 107.39 118.072 107.794 118.371C108.2 118.671 108.451 119.076 108.548 119.586Z" fill="black"/>
</g>
<defs>
<filter id="filter0_dd_0_1" x="13.5881" y="35" width="53.6818" height="77.8182" filterUnits="userSpaceOnUse" color-interpolation-filters="sRGB">
<feFlood flood-opacity="0" result="BackgroundImageFix"/>
<feColorMatrix in="SourceAlpha" type="matrix" values="0 0 0 0 0 0 0 0 0 0 0 0 0 0 0 0 0 0 127 0" result="hardAlpha"/>
<feOffset dy="4"/>
<feGaussianBlur stdDeviation="2"/>
<feComposite in2="hardAlpha" operator="out"/>
<feColorMatrix type="matrix" values="0 0 0 0 0 0 0 0 0 0 0 0 0 0 0 0 0 0 0.25 0"/>
<feBlend mode="normal" in2="BackgroundImageFix" result="effect1_dropShadow_0_1"/>
<feColorMatrix in="SourceAlpha" type="matrix" values="0 0 0 0 0 0 0 0 0 0 0 0 0 0 0 0 0 0 127 0" result="hardAlpha"/>
<feOffset dy="4"/>
<feGaussianBlur stdDeviation="2"/>
<feComposite in2="hardAlpha" operator="out"/>
<feColorMatrix type="matrix" values="0 0 0 0 0 0 0 0 0 0 0 0 0 0 0 0 0 0 0.25 0"/>
<feBlend mode="normal" in2="effect1_dropShadow_0_1" result="effect2_dropShadow_0_1"/>
<feBlend mode="normal" in="SourceGraphic" in2="effect2_dropShadow_0_1" result="shape"/>
</filter>
<filter id="filter1_ddd_0_1" x="57.0964" y="16.293" width="62.7705" height="78.8959" filterUnits="userSpaceOnUse" color-interpolation-filters="sRGB">
<feFlood flood-opacity="0" result="BackgroundImageFix"/>
<feColorMatrix in="SourceAlpha" type="matrix" values="0 0 0 0 0 0 0 0 0 0 0 0 0 0 0 0 0 0 127 0" result="hardAlpha"/>
<feOffset dy="4"/>
<feGaussianBlur stdDeviation="2"/>
<feComposite in2="hardAlpha" operator="out"/>
<feColorMatrix type="matrix" values="0 0 0 0 0 0 0 0 0 0 0 0 0 0 0 0 0 0 0.25 0"/>
<feBlend mode="normal" in2="BackgroundImageFix" result="effect1_dropShadow_0_1"/>
<feColorMatrix in="SourceAlpha" type="matrix" values="0 0 0 0 0 0 0 0 0 0 0 0 0 0 0 0 0 0 127 0" result="hardAlpha"/>
<feOffset dy="4"/>
<feGaussianBlur stdDeviation="2"/>
<feComposite in2="hardAlpha" operator="out"/>
<feColorMatrix type="matrix" values="0 0 0 0 0 0 0 0 0 0 0 0 0 0 0 0 0 0 0.25 0"/>
<feBlend mode="normal" in2="effect1_dropShadow_0_1" result="effect2_dropShadow_0_1"/>
<feColorMatrix in="SourceAlpha" type="matrix" values="0 0 0 0 0 0 0 0 0 0 0 0 0 0 0 0 0 0 127 0" result="hardAlpha"/>
<feOffset dy="4"/>
<feGaussianBlur stdDeviation="2"/>
<feComposite in2="hardAlpha" operator="out"/>
<feColorMatrix type="matrix" values="0 0 0 0 0 0 0 0 0 0 0 0 0 0 0 0 0 0 0.25 0"/>
<feBlend mode="normal" in2="effect2_dropShadow_0_1" result="effect3_dropShadow_0_1"/>
<feBlend mode="normal" in="SourceGraphic" in2="effect3_dropShadow_0_1" result="shape"/>
</filter>
<clipPath id="clip0_0_1">
<rect width="128" height="128" rx="20" fill="white"/>
</clipPath>
</defs>
</svg>
